<svg viewBox="0 0 90 86" fill="none" xmlns="http://www.w3.org/2000/svg">
<g clip-path="url(#clip0)">
<path d="M76.8199 12.4864C68.3204 4.43452 57.0199 0 45 0L43.2422 2.49794L45 4.99589C55.6114 4.99589 65.5875 8.91067 73.0909 16.0191C80.5943 23.1276 84.7266 32.5787 84.7266 42.6316C84.7266 52.6845 80.5943 62.1355 73.0909 69.244C65.5875 76.3525 55.6114 80.2673 45 80.2673L43.2422 82.7652L45 85.2632C57.0199 85.2632 68.3204 80.8286 76.8199 72.7768C85.3191 64.7246 90 54.0189 90 42.6316C90 31.2443 85.3191 20.5386 76.8199 12.4864Z" fill="#ECE6F2"/>
<path d="M45 14.9854L43.2422 17.3581L45 19.9812C58.182 19.9812 68.9062 30.141 68.9062 42.6293C68.9062 55.1175 58.182 65.2773 45 65.2773L43.2422 67.7752L45 70.2732C61.0898 70.2732 74.1797 57.8722 74.1797 42.6293C74.1797 27.3863 61.0898 14.9854 45 14.9854Z" fill="#ECE6F2"/>
<path d="M16.9091 69.244C9.4057 62.1355 5.27344 52.6845 5.27344 42.6316C5.27344 32.5787 9.4057 23.1276 16.9091 16.0191C24.4125 8.91067 34.3886 4.99589 45 4.99589V0C32.9801 0 21.6796 4.43452 13.1801 12.4864C4.68088 20.5386 0 31.2443 0 42.6316C0 54.0189 4.68088 64.7246 13.1801 72.7768C21.6796 80.8286 32.9801 85.2632 45 85.2632V80.2673C34.3886 80.2673 24.4125 76.3525 16.9091 69.244Z" fill="#FFF5F5"/>
<path d="M21.0938 42.6293C21.0938 30.141 31.818 19.9812 45 19.9812V14.9854C28.9102 14.9854 15.8203 27.3863 15.8203 42.6293C15.8203 57.8722 28.9102 70.2732 45 70.2732V65.2773C31.818 65.2773 21.0938 55.1175 21.0938 42.6293Z" fill="#FFF5F5"/>
<path d="M58.3594 42.6324C58.3594 35.6537 52.3665 29.9762 45 29.9762L41.4844 42.6324L45 55.2887C52.3665 55.2887 58.3594 49.6112 58.3594 42.6324Z" fill="#FFDA44"/>
<path d="M52.9102 67.7758C52.9102 63.6437 49.3617 60.282 45 60.282L41.4844 67.7758L45 75.2696C49.3617 75.2696 52.9102 71.9079 52.9102 67.7758Z" fill="#80AAFF"/>
<path d="M69.3617 19.5497C67.8195 18.0888 65.7939 17.3584 63.7682 17.3584L60.2524 24.9774L63.7682 32.339C65.7938 32.339 67.8195 31.6086 69.3615 30.1476C72.4459 27.2257 72.4459 22.4717 69.3617 19.5497Z" fill="#FF415B"/>
<path d="M20.6383 8.95161C19.1443 7.53611 17.158 6.75659 15.0451 6.75659L11.5294 14.2504L15.0451 21.7442C17.158 21.7442 19.1443 20.9646 20.6383 19.5493C22.1324 18.1338 22.9551 16.2521 22.9551 14.2504C22.9551 12.2487 22.1322 10.3669 20.6383 8.95161Z" fill="#24B3B3"/>
<path d="M37.0898 67.7758C37.0898 71.9079 40.6383 75.2696 45 75.2696V60.282C40.6383 60.282 37.0898 63.6437 37.0898 67.7758Z" fill="#B3D9FF"/>
<path d="M31.6406 42.6324C31.6406 49.6112 37.6335 55.2887 45 55.2887V29.9762C37.6335 29.9762 31.6406 35.6537 31.6406 42.6324Z" fill="#FFF79F"/>
<path d="M9.45188 8.95161C7.95775 10.3669 7.13492 12.2489 7.13492 14.2505C7.13492 16.2522 7.95775 18.134 9.45188 19.5493C10.9458 20.9646 12.9321 21.7442 15.045 21.7442V6.75659C12.9321 6.75659 10.9457 7.53611 9.45188 8.95161Z" fill="#2EE6A8"/>
<path d="M58.1758 19.5499C55.0917 22.4717 55.0917 27.2259 58.1758 30.1476C59.7177 31.6086 61.7434 32.339 63.7691 32.339V17.3584C61.7434 17.3586 59.7177 18.089 58.1758 19.5499Z" fill="#FF8859"/>
</g>
<defs>
<clipPath id="clip0">
<rect width="90" height="85.2632" fill="white"/>
</clipPath>
</defs>
</svg>
