<svg height="496pt" viewBox="0 0 496.41008 496" width="496pt" xmlns="http://www.w3.org/2000/svg" xmlns:xlink="http://www.w3.org/1999/xlink"><linearGradient id="linear0" gradientUnits="userSpaceOnUse" x1="248.20682" x2="248.20682" y1="496.20504" y2=".20504"><stop offset="0" stop-color="#9f2fff"/><stop offset="1" stop-color="#0bb1d3"/></linearGradient><path d="m61.335938 496.203125c37.824218 0 88.335937-28.757813 135.238281-63.132813 16.746093 4.664063 34.089843 7.132813 51.632812 7.132813 105.863281 0 192-86.125 192-192 0-17.550781-2.464843-34.886719-7.136719-51.636719 9.367188-12.867187 17.898438-25.386718 25.402344-37.386718 26.839844-42.933594 58.175782-104.367188 20.644532-141.886719-7.789063-7.792969-21.757813-17.089844-44.03125-17.089844-32.207032 0-77.664063 21.273437-135.070313 63.128906-16.640625-4.65625-34.03125-7.128906-51.808594-7.128906-105.863281 0-192 86.128906-192 192 0 17.738281 2.449219 35.097656 7.085938 51.699219-9.367188 12.863281-17.910157 25.414062-25.351563 37.328125-26.839844 42.933593-58.183594 104.367187-20.648437 141.886719 7.785156 7.785156 21.753906 17.078124 44.042969 17.085937zm362.871093-248c0 97.050781-78.953125 176-176 176-11.847656 0-23.566406-1.261719-35.070312-3.589844 51.316406-39.648437 95.660156-82.921875 110.109375-97.367187 36.847656-36.839844 70.058594-74.519532 97.375-110.113282 2.320312 11.496094 3.585937 23.222657 3.585937 35.070313zm-278.992187 162.066406c-3.847656 2.542969-7.726563 5.160157-11.464844 7.496094-49.941406 31.207031-75.664062 34.261719-82.519531 27.414063-8.457031-8.453126-.542969-40.65625 34.921875-94.160157 14.917968 23.523438 34.894531 43.882813 59.0625 59.25zm14.566406-9.96875c-18.804688-10.953125-35.125-25.023437-48.398438-41.441406 52.488282-15.09375 106.257813-48.398437 152.664063-94.8125 41.511719-41.503906 72.464844-88.441406 89.472656-135.707031 2.015625-5.589844 3.765625-11.246094 5.382813-16.910156 16.390625 13.261718 30.464844 29.566406 41.410156 48.351562-28.539062 40.496094-66.960938 85.488281-111 129.527344-44.042969 44.039062-89.035156 82.464844-129.53125 110.992187zm250.488281-255.085937c-15.367187-24.160156-35.734375-44.136719-59.246093-59.050782 53.503906-35.480468 85.703124-43.359374 94.160156-34.925781 6.855468 6.855469 3.800781 32.582031-27.410156 82.511719-2.34375 3.734375-4.957032 7.613281-7.503907 11.464844zm-65.238281-43.898438c-1.863281 7.226563-3.992188 14.472656-6.558594 21.609375-16.226562 45.0625-45.875 89.960938-85.738281 129.816407-46.214844 46.214843-99.785156 78.78125-151.441406 92.269531-9.007813-13.671875-16.078125-28.574219-20.988281-44.292969 45.6875-9.625 95.644531-39.074219 138.484374-81.914062 34.410157-34.398438 60.859376-74.222657 74.503907-112.136719 3.152343-8.726563 5.625-17.550781 7.425781-26.351563 15.726562 4.914063 30.640625 11.984375 44.3125 21zm-60-25.183594c-1.65625 8.367188-3.792969 16.777344-6.792969 25.121094-12.855469 35.734375-37.984375 73.464844-70.757812 106.238282-40.984375 40.984374-88.417969 68.960937-131.3125 77.722656-2.578125-12.027344-3.960938-24.410156-3.960938-37.011719 0-3.878906.167969-7.726563.421875-11.550781 31.890625-8.199219 69.097656-31.296875 100.914063-63.121094 31.816406-31.820312 54.910156-69.023438 63.121093-100.910156 3.816407-.25 7.664063-.417969 11.542969-.417969 12.527344 0 24.855469 1.371094 36.824219 3.929687zm-65.402344-1.574218c-8.734375 27.832031-29.503906 59.773437-57.398437 87.664062-27.894531 27.886719-59.832031 48.671875-87.664063 57.398438 12.160156-74.183594 70.863282-132.886719 145.0625-145.0625zm-168.125 271.152344c5.464844-8.738282 11.550782-17.851563 18.136719-27.195313 2.285156 5.824219 4.78125 11.554687 7.613281 17.105469-29.933594 43.832031-59.390625 98.808594-37.328125 120.871094 5.167969 5.167968 12.3125 7.753906 21.410157 7.753906 18.773437 0 45.832031-10.992188 80.894531-32.90625 47.601562-29.75 103.847656-76.175782 158.390625-130.710938 54.539062-54.535156 100.960937-110.792968 130.714844-158.390625 32.527343-52.050781 41-86.472656 25.160156-102.3125-22.035156-22.058593-77.042969 7.40625-120.882813 37.335938-5.511719-2.824219-11.207031-5.304688-16.992187-7.585938 49.625-35.007812 89.738281-53.472656 116.464844-53.472656 16.792968 0 27.058593 6.746094 32.722656 12.410156 29.460937 29.457031 1.039062 83.792969-22.898438 122.097657-30.375 48.589843-77.597656 105.847656-132.976562 161.222656-83.75 83.757812-193.71875 168.269531-250.605469 168.269531-16.800781-.007813-27.066406-6.75-32.722656-12.40625-29.460938-29.457031-1.039063-83.785156 22.898437-122.085937zm227.03125 43.292968 3.34375 15.648438c-5.542968 1.183594-11.207031 2.089844-16.847656 2.671875l-1.65625-15.910157c5.0625-.527343 10.160156-1.335937 15.160156-2.410156zm15.152344-4.125c48.167969-16.027344 84.703125-56.777344 95.328125-106.355468l15.640625 3.355468c-11.808594 55.09375-52.394531 100.375-105.921875 118.175782zm-45.480469-176.675781h16v16h-16zm-88 152h16v16h-16zm200-168h-16v-16h16zm-184-64h-16v-16h16zm0 0" fill="url(#linear0)"/></svg>