<svg width="28" height="28" viewBox="0 0 28 28" fill="none" xmlns="http://www.w3.org/2000/svg">
<path fill-rule="evenodd" clip-rule="evenodd" d="M15.8384 11.5612L26.4318 22.1545C26.8984 22.6212 26.8984 23.3562 26.4318 23.7995L23.7484 26.4829C23.2934 26.9379 22.5584 26.9379 22.1034 26.4829L11.4751 15.8545C8.76842 16.8695 5.60676 16.2979 3.43676 14.1279C0.753422 11.4562 0.508422 7.26785 2.67842 4.30452L7.14675 8.77285L8.80342 7.12785L4.32342 2.63619C7.29842 0.466185 11.4751 0.711185 14.1584 3.39452C16.3634 5.61119 16.9234 8.83119 15.8384 11.5612ZM11.8951 12.9845L22.9318 24.0212L23.9584 22.9828L12.9334 11.9579C13.4701 11.2695 13.8201 10.4995 13.9601 9.67118C14.2518 8.04952 13.7734 6.31118 12.5134 5.05118C11.4051 3.95452 9.94676 3.44118 8.5001 3.52285L12.1051 7.12785L7.15843 12.0745L3.55343 8.46952C3.47176 9.91618 3.9851 11.3862 5.09343 12.4829C6.30676 13.6962 7.9751 14.1745 9.56176 13.9412C10.3901 13.8245 11.1834 13.5095 11.8951 12.9845Z" fill="black" fill-opacity="0.54"/>
</svg>
