<svg width="80" height="80" viewBox="0 0 80 80" fill="none" xmlns="http://www.w3.org/2000/svg">
<path d="M63.1532 16.0922L68.2001 40.2375L54.8719 32.9469L63.1532 16.0922Z" fill="#616D77"/>
<path d="M68.2001 40.2375L65.5516 62.0625L54.8719 32.9469L68.2001 40.2375Z" fill="#505C63"/>
<path d="M54.8718 32.9469L65.5515 62.0625L35.6515 54.5469L27.8171 44.5703L54.8718 32.9469Z" fill="#798795"/>
<path d="M65.5515 62.0625L57.3828 75.4828L35.0922 68.7469L35.6515 54.5469L65.5515 62.0625Z" fill="#616D77"/>
<path d="M63.1531 16.0922L54.8719 32.9469L45.9 16.0344L45.9344 1.71875L63.1531 16.0922Z" fill="#8E99A3"/>
<path d="M57.3828 75.4828L31.7797 78.2813L16.9281 70.8438L35.0922 68.7469L57.3828 75.4828Z" fill="#505C63"/>
<path d="M45.9 16.0344L54.8718 32.9469L27.8171 44.5703L28.5093 30.6625L45.9 16.0344Z" fill="#616D77"/>
<path d="M45.9344 1.71875L45.9001 16.0344L31.3407 12.5453L45.9344 1.71875Z" fill="#93A1AD"/>
<path d="M45.9 16.0344L28.5094 30.6625L16.975 18.6375L31.3406 12.5453L45.9 16.0344Z" fill="#798795"/>
<path d="M27.8171 44.5703L35.6515 54.5469L35.0921 68.7469L16.9281 70.8438L11.7999 52.3203L27.8171 44.5703Z" fill="#8E99A3"/>
<path d="M16.9749 18.6375L28.5093 30.6625L27.8171 44.5703L11.7999 52.3203L16.9749 18.6375Z" fill="#93A1AD"/>
<path d="M24.2442 69.9992L16.9281 70.8438L31.7797 78.2812L38.0461 77.5964L24.2442 69.9992Z" fill="#414A4F"/>
<path d="M45.9344 1.71875L31.3407 12.5453L37.7449 14.08L45.9188 8.24469L45.9344 1.71875Z" fill="#748089"/>
<path d="M21.454 23.3072L16.9749 18.6375L11.7999 52.3203L18.427 49.1137L21.454 23.3072Z" fill="#79848C"/>
<path d="M37.7448 14.08L31.3406 12.5453L16.975 18.6375L21.454 23.3072L37.7448 14.08Z" fill="#5E6A75"/>
<path d="M11.7999 52.3203L16.928 70.8438L24.2441 69.9992L18.427 49.1138L11.7999 52.3203Z" fill="#747C82"/>
<path d="M18.9936 27.7209C18.9417 27.7209 18.89 27.7166 18.8388 27.7081C18.5936 27.6674 18.3746 27.5309 18.23 27.3287C18.0854 27.1265 18.027 26.8752 18.0677 26.63L18.1614 26.0675C18.2026 25.8226 18.3392 25.604 18.5413 25.4598C18.7434 25.3155 18.9945 25.2573 19.2395 25.298C19.4845 25.3386 19.7033 25.4748 19.848 25.6767C19.9926 25.8785 20.0513 26.1295 20.0111 26.3745L19.9174 26.937C19.881 27.1559 19.7683 27.3547 19.5991 27.4983C19.43 27.6418 19.2154 27.7207 18.9936 27.7209Z" fill="#F4F8FC"/>
<path d="M16.7619 41.1644C16.7101 41.1643 16.6584 41.1601 16.6074 41.1516C16.3621 41.1108 16.1431 40.9744 15.9985 40.7722C15.8539 40.57 15.7955 40.3187 15.8361 40.0734L17.572 29.6159C17.614 29.3718 17.7508 29.1541 17.9527 29.0105C18.1546 28.867 18.4051 28.8091 18.6495 28.8497C18.8939 28.8902 19.1123 29.0258 19.257 29.2269C19.4017 29.428 19.4609 29.6782 19.4217 29.9228L17.6856 40.3805C17.6493 40.5993 17.5365 40.7982 17.3674 40.9417C17.1983 41.0852 16.9837 41.1641 16.7619 41.1644Z" fill="#F4F8FC"/>
</svg>
