<svg width="19" height="18" viewBox="0 0 19 18" fill="none" xmlns="http://www.w3.org/2000/svg">
<path fill-rule="evenodd" clip-rule="evenodd" d="M11.5055 2.06V0C15.5809 0.91 18.6196 4.49 18.6196 8.77C18.6196 13.05 15.5809 16.63 11.5055 17.54V15.48C14.4426 14.62 16.587 11.94 16.587 8.77C16.587 5.6 14.4426 2.92 11.5055 2.06ZM0.326172 11.77V5.77H4.39139L9.47291 0.77V16.77L4.39139 11.77H0.326172ZM7.4403 11.94V5.6L5.23492 7.77H2.35878V9.77H5.23492L7.4403 11.94ZM14.0463 8.77C14.0463 7 13.0097 5.48 11.5055 4.74V12.79C13.0097 12.06 14.0463 10.54 14.0463 8.77Z" fill="black"/>
</svg>
