<svg width="48" height="48" viewBox="0 0 48 48" fill="none" xmlns="http://www.w3.org/2000/svg">
<g id="settings_24px">
<path id="icon/action/settings_24px" fill-rule="evenodd" clip-rule="evenodd" d="M39.0046 24C39.0046 24.68 38.9446 25.32 38.8646 25.96L43.0846 29.26C43.4646 29.56 43.5646 30.1 43.3246 30.54L39.3246 37.46C39.1446 37.78 38.8046 37.96 38.4646 37.96C38.3446 37.96 38.2246 37.94 38.1046 37.9L33.1246 35.9C32.0846 36.68 30.9646 37.36 29.7446 37.86L28.9846 43.16C28.9246 43.64 28.5046 44 28.0046 44H20.0046C19.5046 44 19.0846 43.64 19.0246 43.16L18.2646 37.86C17.0446 37.36 15.9246 36.7 14.8846 35.9L9.90456 37.9C9.80456 37.94 9.68456 37.96 9.56456 37.96C9.20456 37.96 8.86456 37.78 8.68456 37.46L4.68456 30.54C4.44456 30.1 4.54456 29.56 4.92456 29.26L9.14456 25.96C9.06456 25.32 9.00456 24.66 9.00456 24C9.00456 23.34 9.06456 22.68 9.14456 22.04L4.92456 18.74C4.54456 18.44 4.42456 17.9 4.68456 17.46L8.68456 10.54C8.86456 10.22 9.20456 10.04 9.54456 10.04C9.66456 10.04 9.78456 10.06 9.90456 10.1L14.8846 12.1C15.9246 11.32 17.0446 10.64 18.2646 10.14L19.0246 4.84C19.0846 4.36 19.5046 4 20.0046 4H28.0046C28.5046 4 28.9246 4.36 28.9846 4.84L29.7446 10.14C30.9646 10.64 32.0846 11.3 33.1246 12.1L38.1046 10.1C38.2046 10.06 38.3246 10.04 38.4446 10.04C38.8046 10.04 39.1446 10.22 39.3246 10.54L43.3246 17.46C43.5646 17.9 43.4646 18.44 43.0846 18.74L38.8646 22.04C38.9446 22.68 39.0046 23.32 39.0046 24ZM35.0044 24C35.0044 23.58 34.9844 23.16 34.9044 22.54L34.6244 20.28L36.4044 18.88L38.5444 17.18L37.1444 14.76L34.6044 15.78L32.4844 16.64L30.6644 15.24C29.8644 14.64 29.0644 14.18 28.2044 13.82L26.0844 12.96L25.7644 10.7L25.3844 8H22.6044L22.2044 10.7L21.8844 12.96L19.7644 13.82C18.9444 14.16 18.1244 14.64 17.2644 15.28L15.4644 16.64L13.3844 15.8L10.8444 14.78L9.44445 17.2L11.6044 18.88L13.3844 20.28L13.1044 22.54C13.0444 23.14 13.0044 23.6 13.0044 24C13.0044 24.4 13.0444 24.86 13.1044 25.48L13.3844 27.74L11.6044 29.14L9.44445 30.82L10.8444 33.24L13.3844 32.22L15.5044 31.36L17.3244 32.76C18.1244 33.36 18.9244 33.82 19.7844 34.18L21.9044 35.04L22.2244 37.3L22.6044 40H25.4044L25.8044 37.3L26.1244 35.04L28.2444 34.18C29.0644 33.84 29.8844 33.36 30.7444 32.72L32.5444 31.36L34.6244 32.2L37.1644 33.22L38.5644 30.8L36.4044 29.12L34.6244 27.72L34.9044 25.46C34.9644 24.86 35.0044 24.42 35.0044 24ZM24.0047 16C19.5847 16 16.0047 19.58 16.0047 24C16.0047 28.42 19.5847 32 24.0047 32C28.4247 32 32.0047 28.42 32.0047 24C32.0047 19.58 28.4247 16 24.0047 16ZM20.0047 24C20.0047 26.2 21.8047 28 24.0047 28C26.2047 28 28.0047 26.2 28.0047 24C28.0047 21.8 26.2047 20 24.0047 20C21.8047 20 20.0047 21.8 20.0047 24Z" fill="black" fill-opacity="0.54"/>
</g>
</svg>
