<svg width="240" height="100" viewBox="0 0 240 100" fill="none" xmlns="http://www.w3.org/2000/svg">
<path d="M102.124 71.2659C103.313 71.3896 104.296 72.2492 104.572 73.4136C104.847 74.5755 104.361 75.7894 103.353 76.4349L76.4131 93.667C72.3455 96.257 67.6462 97.6249 62.8231 97.6249L32.8128 97.6249C31.6235 97.6249 30.5635 96.8778 30.1638 95.7574C30.0541 95.4498 30.0003 95.1284 30.0003 94.8124C30.0003 93.9855 30.3656 93.1808 31.0318 92.6345L61.2481 67.9127C61.8275 67.4402 62.5721 67.2177 63.3164 67.2918L102.124 71.2659Z" fill="#FF4F19"/>
<path d="M102.124 28.359C103.313 28.2352 104.296 27.3757 104.572 26.2113C104.847 25.0494 104.361 23.8355 103.353 23.19L76.4131 5.95787C72.3455 3.36792 67.6462 2 62.8231 2L32.8128 2C31.6235 2 30.5635 2.74707 30.1638 3.86749C30.0541 4.17511 30.0003 4.49644 30.0003 4.81249C30.0003 5.63936 30.3656 6.44409 31.0318 6.99041L61.2481 31.7122C61.8275 32.1847 62.5721 32.4072 63.3164 32.333L102.124 28.359Z" fill="#E9001E"/>
<path d="M209.598 51.26C210.134 50.3702 210.134 49.255 209.598 48.3652C208.876 47.1622 191.471 18.8752 153.75 18.8752C138.519 18.8752 97.9941 22.6602 59.4872 27.6808C53.9006 28.4085 49.6875 33.2014 49.6875 38.8235V60.8017C49.6875 66.4239 53.9006 71.2167 59.4872 71.9445C97.9941 76.9651 138.519 80.75 153.75 80.75C191.471 80.75 208.876 52.463 209.598 51.26Z" fill="#FFD200"/>
<path d="M49.6875 49.8126V38.8235C49.6875 33.2014 53.9006 28.4085 59.4873 27.6808C97.9941 22.6602 138.519 18.8752 153.75 18.8752C191.471 18.8752 208.876 47.1622 209.598 48.3652C209.865 48.8086 209.998 49.3081 209.999 49.8077V49.813L49.6875 49.813V49.8126Z" fill="#FF9600"/>
<path d="M134.062 49.8127C134.062 59.1324 141.617 66.6876 150.937 66.6876C160.257 66.6876 167.812 59.1324 167.812 49.8127C167.812 40.4929 160.257 32.9377 150.937 32.9377C141.617 32.9377 134.062 40.4929 134.062 49.8127Z" fill="#53DCFF"/>
<path d="M30 49.8127C30 48.2581 31.2593 47.0002 32.8125 47.0002L100.312 47.0002C101.865 47.0002 103.125 48.2581 103.125 49.8127C103.125 51.3673 101.865 52.6252 100.312 52.6252L32.8125 52.6252C31.2593 52.6252 30 51.3673 30 49.8127Z" fill="#FF4F19"/>
<path d="M209.598 48.3652C209.115 47.5608 201.165 34.6614 184.687 26.1919V73.4333C201.165 64.9638 209.115 52.0643 209.598 51.26C210.134 50.3702 210.134 49.255 209.598 48.3652Z" fill="#FF4F19"/>
<path d="M210 49.8126C210 49.3113 209.866 48.8099 209.598 48.3652C209.115 47.5608 201.165 34.6614 184.687 26.1919V49.8126H210Z" fill="#E9001E"/>
<path d="M150.937 66.6877C160.257 66.6877 167.812 59.1326 167.812 49.8127L134.062 49.8127C134.062 59.1326 141.617 66.6877 150.937 66.6877Z" fill="#B3F4FF"/>
<path d="M131.25 49.8127C131.25 38.9582 140.081 30.1252 150.937 30.1252C161.793 30.1252 170.625 38.9582 170.625 49.8127C170.625 60.6671 161.793 69.5001 150.937 69.5001C140.081 69.5001 131.25 60.6671 131.25 49.8127ZM165 49.8127C165 42.059 158.691 35.7502 150.937 35.7502C143.183 35.7502 136.875 42.059 136.875 49.8127C136.875 57.5663 143.183 63.8751 150.937 63.8751C158.691 63.8751 165 57.5663 165 49.8127Z" fill="#5C546A"/>
</svg>
