<svg width="24" height="24" viewBox="0 0 24 24" fill="none" xmlns="http://www.w3.org/2000/svg">
<path d="M19.14 12.936C19.176 12.636 19.2 12.324 19.2 12C19.2 11.676 19.176 11.364 19.128 11.064L21.156 9.47999C21.336 9.33599 21.384 9.07199 21.276 8.86799L19.356 5.54399C19.236 5.32799 18.984 5.25599 18.768 5.32799L16.38 6.28799C15.876 5.90399 15.348 5.59199 14.76 5.35199L14.4 2.80799C14.364 2.56799 14.16 2.39999 13.92 2.39999H10.08C9.84 2.39999 9.648 2.56799 9.612 2.80799L9.252 5.35199C8.664 5.59199 8.124 5.91599 7.632 6.28799L5.244 5.32799C5.028 5.24399 4.776 5.32799 4.656 5.54399L2.736 8.86799C2.616 9.08399 2.664 9.33599 2.856 9.47999L4.884 11.064C4.836 11.364 4.8 11.688 4.8 12C4.8 12.312 4.824 12.636 4.872 12.936L2.844 14.52C2.664 14.664 2.616 14.928 2.724 15.132L4.644 18.456C4.764 18.672 5.016 18.744 5.232 18.672L7.62 17.712C8.124 18.096 8.652 18.408 9.24 18.648L9.6 21.192C9.648 21.432 9.84 21.6 10.08 21.6H13.92C14.16 21.6 14.364 21.432 14.388 21.192L14.748 18.648C15.336 18.408 15.876 18.084 16.368 17.712L18.756 18.672C18.972 18.756 19.224 18.672 19.344 18.456L21.264 15.132C21.384 14.916 21.336 14.664 21.144 14.52L19.14 12.936ZM12 15.6C10.02 15.6 8.4 13.98 8.4 12C8.4 10.02 10.02 8.39999 12 8.39999C13.98 8.39999 15.6 10.02 15.6 12C15.6 13.98 13.98 15.6 12 15.6Z" fill="black"/>
</svg>
