<svg width="18" height="18" viewBox="0 0 18 18" fill="none" xmlns="http://www.w3.org/2000/svg">
<path fill-rule="evenodd" clip-rule="evenodd" d="M11.1793 2.06V0C15.2547 0.91 18.2935 4.49 18.2935 8.77C18.2935 13.05 15.2547 16.63 11.1793 17.54V15.48C14.1165 14.62 16.2609 11.94 16.2609 8.77C16.2609 5.6 14.1165 2.92 11.1793 2.06ZM0 11.77V5.77H4.06522L9.14674 0.77V16.77L4.06522 11.77H0ZM7.11413 11.94V5.6L4.90875 7.77H2.03261V9.77H4.90875L7.11413 11.94ZM13.7201 8.77C13.7201 7 12.6835 5.48 11.1793 4.74V12.79C12.6835 12.06 13.7201 10.54 13.7201 8.77Z" fill="black"/>
</svg>
